<svg xmlns="http://www.w3.org/2000/svg" viewBox="0 0 32 32" fill="none">
  <rect width="32" height="32" rx="6" fill="#3B82F6"/>
  <path d="M8 8C8 6.89543 8.89543 6 10 6H22C23.1046 6 24 6.89543 24 8V24C24 25.1046 23.1046 26 22 26H10C8.89543 26 8 25.1046 8 24V8Z" fill="white"/>
  <path d="M10 8H22V24H10V8Z" fill="#3B82F6"/>
  <path d="M12 10H20V12H12V10Z" fill="white"/>
  <path d="M12 14H20V16H12V14Z" fill="white"/>
  <path d="M12 18H18V20H12V18Z" fill="white"/>
  <circle cx="24" cy="8" r="4" fill="#F59E0B"/>
  <path d="M22.5 6.5L25.5 9.5M25.5 6.5L22.5 9.5" stroke="white" stroke-width="1" stroke-linecap="round"/>
</svg>
